<?xml version="1.0" encoding="UTF-8"?>
<!--
  rivalDrop primary lockup. Brand v1.0.
  Symbol left (Feynman vertex on 64-unit grid), wordmark right.
  Wordmark is outlined from Source Serif 4 Medium (regular and italic),
  so the lockup renders identically when loaded via <img> from external
  referrers without depending on the webfont being available.
-->
<svg xmlns="http://www.w3.org/2000/svg" viewBox="0 0 320 80" role="img" aria-label="rivalDrop">
  <title>rivalDrop</title>
  <g transform="translate(0,8)">
    <line x1="4" y1="10" x2="32" y2="32" stroke="#0E1116" stroke-width="2.5" stroke-linecap="round"/>
    <line x1="4" y1="54" x2="32" y2="32" stroke="#0E1116" stroke-width="2.5" stroke-linecap="round"/>
    <line x1="32" y1="32" x2="60" y2="32" stroke="#0E1116" stroke-width="2" stroke-linecap="round" stroke-dasharray="3 3"/>
    <circle cx="32" cy="32" r="3.2" fill="#0E1116"/>
    <circle cx="58" cy="32" r="4.5" fill="#FF5B1F"/>
  </g>
  <g aria-hidden="true"><path fill="#0E1116" d="M98.08 56L85.85 56L85.85 53.76L90.69 53.32L92.62 53.32L98.08 53.76L98.08 56ZM93.94 56L89.06 56Q89.10 54.68 89.10 53.05Q89.10 51.42 89.13 49.71Q89.15 47.99 89.15 46.54L89.15 46.54L89.15 44.21Q89.15 43.06 89.13 42.14Q89.10 41.22 89.10 40.34Q89.10 39.46 89.06 38.53L89.06 38.53L85.58 38.36L85.58 36.33L91.88 34L93.15 34.22L93.59 40.16L93.90 40.20L93.90 46.54Q93.90 47.99 93.90 49.71Q93.90 51.42 93.92 53.05Q93.94 54.68 93.94 56L93.94 56ZM93.42 43.68L93.42 43.68L93.02 40.29L94.12 40.29Q94.82 38.27 95.77 36.82Q96.72 35.36 97.88 34.59Q99.05 33.82 100.46 33.82L100.46 33.82Q101.82 33.82 102.72 34.51Q103.62 35.19 103.93 36.16L103.93 36.16Q103.84 37.61 103.10 38.58Q102.35 39.54 100.90 39.54L100.90 39.54Q99.97 39.54 99.25 39.15Q98.52 38.75 97.90 38.14L97.90 38.14L96.89 37.12L99.18 37.08Q97.07 38.05 95.68 39.79Q94.30 41.52 93.42 43.68Z M116.38 56L105.08 56L105.08 53.76L109.92 53.32L111.68 53.32L116.38 53.76L116.38 56ZM113.22 56L108.33 56Q108.38 54.68 108.38 53.05Q108.38 51.42 108.40 49.71Q108.42 47.99 108.42 46.54L108.42 46.54L108.42 44.25Q108.42 42.62 108.40 41.28Q108.38 39.94 108.33 38.53L108.33 38.53L104.86 38.36L104.86 36.33L111.94 34L113.22 34.22L113.17 39.76L113.17 46.54Q113.17 47.99 113.17 49.71Q113.17 51.42 113.19 53.05Q113.22 54.68 113.22 56L113.22 56ZM110.66 29.91L110.66 29.91Q109.34 29.91 108.42 29.01Q107.50 28.10 107.50 26.83L107.50 26.83Q107.50 25.46 108.42 24.61Q109.34 23.75 110.66 23.75L110.66 23.75Q112.03 23.75 112.93 24.61Q113.83 25.46 113.83 26.83L113.83 26.83Q113.83 28.10 112.93 29.01Q112.03 29.91 110.66 29.91Z M131.17 56.13L127.78 56.13L119.02 34.31L124.44 34.31L131.08 52.52L130.82 52.52L132.05 47.55L136.84 34.31L139.97 34.31L131.17 56.13ZM121.40 37.08L117.35 36.46L117.35 34.31L129.14 34.31L129.14 36.46L124.26 37.08L121.40 37.08ZM136.84 37.04L132.44 36.46L132.44 34.31L141.73 34.31L141.73 36.46L138.12 37.04L136.84 37.04Z M149.25 56.66L149.25 56.66Q146.74 56.66 144.98 55.16Q143.22 53.67 143.22 50.90L143.22 50.90Q143.22 49.27 143.93 48.01Q144.63 46.76 146.26 45.77Q147.89 44.78 150.70 43.99L150.70 43.99Q151.94 43.64 153.17 43.33Q154.40 43.02 155.61 42.67Q156.82 42.32 158.05 42.01L158.05 42.01L158.05 43.86Q156.51 44.30 154.99 44.78Q153.48 45.26 151.94 45.75L151.94 45.75Q150.31 46.23 149.43 46.89Q148.55 47.55 148.22 48.32Q147.89 49.09 147.89 49.97L147.89 49.97Q147.89 51.60 148.86 52.48Q149.82 53.36 151.45 53.36L151.45 53.36Q152.46 53.36 153.30 52.99Q154.14 52.61 155.08 51.91Q156.03 51.20 157.30 50.10L157.30 50.10L157.57 52.57L155.94 52.57Q155.10 53.71 154.20 54.64Q153.30 55.56 152.13 56.11Q150.97 56.66 149.25 56.66ZM160.87 56.53L160.87 56.53Q158.84 56.53 157.66 55.30Q156.47 54.06 156.34 51.73L156.34 51.73L156.20 51.64L156.20 41.26Q156.20 39.28 155.74 38.14Q155.28 36.99 154.29 36.51Q153.30 36.02 151.76 36.02L151.76 36.02Q150.70 36.02 149.69 36.22Q148.68 36.42 147.62 36.86L147.62 36.86L149.52 35.01L148.94 38.84Q148.77 40.38 148.06 41.08Q147.36 41.79 146.26 41.79L146.26 41.79Q145.16 41.79 144.57 41.22Q143.97 40.64 143.80 39.81L143.80 39.81Q144.32 37.04 146.79 35.39Q149.25 33.74 153.12 33.74L153.12 33.74Q155.59 33.74 157.33 34.51Q159.06 35.28 159.99 36.97Q160.91 38.66 160.91 41.48L160.91 41.48L160.91 51.25Q160.91 52.44 161.37 52.96Q161.84 53.49 162.63 53.49L162.63 53.49Q163.16 53.49 163.57 53.32Q163.99 53.14 164.34 52.88L164.34 52.88L165.09 54.42Q164.39 55.38 163.35 55.96Q162.32 56.53 160.87 56.53Z M177.41 56L165.80 56L165.80 53.76L170.68 53.32L172.44 53.32L177.41 53.76L177.41 56ZM174.02 56L169.14 56Q169.18 54.42 169.18 52.83Q169.18 51.25 169.21 49.66Q169.23 48.08 169.23 46.54L169.23 46.54L169.23 27.93L165.58 27.27L165.58 25.38L172.75 23.79L174.02 23.97L173.94 29.69L173.94 46.54Q173.94 48.08 173.96 49.66Q173.98 51.25 173.98 52.83Q173.98 54.42 174.02 56L174.02 56Z"/><path fill="#FF5B1F" d="M183.88 56L177.94 56L178.38 53.67L183.53 53.32L184.10 53.32L183.88 56ZM186.48 56L181.68 56L184.58 40.20Q185.20 36.82 185.79 33.43Q186.39 30.04 186.96 26.65L186.96 26.65L191.80 26.65L188.90 42.40Q188.28 45.79 187.66 49.20Q187.05 52.61 186.48 56L186.48 56ZM187.88 29.34L182.60 29.03L183.00 26.65L188.81 26.65L188.59 29.34L187.88 29.34ZM190.57 56L184.41 56L184.58 53.58L190.70 53.58Q193.78 53.58 196.09 52.30Q198.40 51.03 199.96 48.92Q201.52 46.80 202.32 44.16Q203.11 41.52 203.11 38.80L203.11 38.80Q203.11 33.96 200.73 31.54Q198.36 29.12 193.74 29.12L193.74 29.12L189.20 29.12L189.42 26.65L194.97 26.65Q199.06 26.65 202.03 28.10Q205.00 29.56 206.58 32.26Q208.17 34.97 208.17 38.88L208.17 38.88Q208.17 42.62 206.87 45.75Q205.57 48.87 203.24 51.18Q200.91 53.49 197.67 54.75Q194.44 56 190.57 56L190.57 56Z M216.79 45.79L216.79 45.79L216.53 42.10L217.50 42.10Q218.46 39.76 219.56 37.85Q220.66 35.94 221.98 34.84Q223.30 33.74 224.84 33.74L224.84 33.74Q226.16 33.74 226.98 34.24Q227.79 34.75 228.10 35.72L228.10 35.72Q228.01 36.90 227.33 37.70Q226.65 38.49 225.46 38.49L225.46 38.49Q224.54 38.49 223.83 38.07Q223.13 37.65 222.38 36.86L222.38 36.86L221.68 36.11L224.05 36.42L222.78 36.55Q221.81 37.48 220.86 38.77Q219.92 40.07 218.93 41.79Q217.94 43.50 216.79 45.79ZM211.34 56.40L210.32 56L214.42 36.90L215.43 38.22L209.93 37.96L210.28 36.16L217.76 33.78L218.77 34.22L217.41 41.66L217.76 42.01L216.88 46.06Q216.35 48.56 215.87 51.05Q215.38 53.54 214.90 56L214.90 56L211.34 56.40Z M236.24 56.57L236.24 56.57Q233.86 56.57 232.04 55.63Q230.21 54.68 229.16 52.81Q228.10 50.94 228.10 48.26L228.10 48.26Q228.10 45.31 229.02 42.69Q229.95 40.07 231.62 38.05Q233.29 36.02 235.54 34.88Q237.78 33.74 240.38 33.74L240.38 33.74Q242.80 33.74 244.60 34.68Q246.40 35.63 247.42 37.48Q248.43 39.32 248.43 42.01L248.43 42.01Q248.43 44.87 247.50 47.51Q246.58 50.15 244.93 52.19Q243.28 54.24 241.06 55.41Q238.84 56.57 236.24 56.57ZM236.68 54.42L236.68 54.42Q237.96 54.42 239.06 53.71Q240.16 53.01 241.04 51.82Q241.92 50.63 242.53 49.05Q243.15 47.46 243.48 45.64Q243.81 43.81 243.81 41.96L243.81 41.96Q243.81 38.71 242.73 37.30Q241.65 35.89 239.94 35.89L239.94 35.89Q238.70 35.89 237.60 36.57Q236.50 37.26 235.60 38.42Q234.70 39.59 234.06 41.17Q233.42 42.76 233.07 44.58Q232.72 46.41 232.72 48.34L232.72 48.34Q232.72 51.56 233.84 52.99Q234.96 54.42 236.68 54.42Z M257.80 66.12L246.01 66.12L246.45 64.14L251.38 63.70L252.78 63.70L258.24 64.14L257.80 66.12ZM253.80 66.12L249.40 66.12L255.38 37.17L256.39 38.22L250.89 37.96L251.24 36.16L258.72 33.78L259.82 34.22L258.86 40.25L259.21 40.38L256.26 54.24L255.95 54.64Q255.51 56.88 255.12 58.86Q254.72 60.84 254.39 62.64Q254.06 64.45 253.80 66.12L253.80 66.12ZM258.06 56.57L258.06 56.57Q256.66 56.57 255.69 56.15Q254.72 55.74 253.84 54.94L253.84 54.94L255.03 51.64Q256.00 52.66 257.16 53.16Q258.33 53.67 259.60 53.67L259.60 53.67Q260.66 53.67 261.58 53.23Q262.51 52.79 263.34 52.02Q264.18 51.25 264.88 50.28L264.88 50.28Q265.68 49.18 266.34 47.75Q267.00 46.32 267.39 44.69Q267.79 43.06 267.79 41.39L267.79 41.39Q267.79 39.24 267.15 38.22Q266.51 37.21 265.24 37.21L265.24 37.21Q264.31 37.21 263.23 37.72Q262.16 38.22 260.86 39.41Q259.56 40.60 258.02 42.62L258.02 42.62L257.76 40.64L258.59 40.64Q259.74 38.49 261.25 36.95Q262.77 35.41 264.44 34.57Q266.12 33.74 267.70 33.74L267.70 33.74Q269.02 33.74 270.08 34.33Q271.13 34.92 271.75 36.24Q272.36 37.56 272.36 39.72L272.36 39.72Q272.36 42.27 271.51 44.71Q270.65 47.16 269.20 49.31Q267.74 51.47 265.90 53.10Q264.05 54.72 262.02 55.65Q260 56.57 258.06 56.57Z"/></g>
</svg>
